# This file uses centimeters as units for non-parametric coordinates.

mtllib flaska4.mtl
g default
v 0.312322 -0.340704 -0.180313
v 0.180319 -0.340704 -0.312321
v 0.000000 -0.340704 -0.360634
v -0.180319 -0.340704 -0.312321
v -0.312322 -0.340704 -0.180313
v -0.360638 -0.340704 0.000000
v -0.312322 -0.340704 0.180321
v -0.180319 -0.340704 0.312325
v 0.000000 -0.340704 0.360638
v 0.180319 -0.340704 0.312325
v 0.312322 -0.340704 0.180321
v 0.360638 -0.340704 0.000000
v 0.312322 0.193936 -0.180313
v 0.180319 0.193936 -0.312321
v 0.000000 0.193936 -0.360634
v -0.180319 0.193936 -0.312321
v -0.312322 0.193936 -0.180313
v -0.360638 0.193936 0.000000
v -0.312322 0.193936 0.180321
v -0.180319 0.193936 0.312325
v 0.000000 0.193936 0.360638
v 0.180319 0.193936 0.312325
v 0.312322 0.193936 0.180321
v 0.360638 0.193936 0.000000
v 0.000000 -0.340704 0.000000
v 0.284591 -0.073384 -0.164307
v 0.164309 -0.073384 -0.284588
v 0.000000 -0.073384 -0.328613
v -0.164309 -0.073384 -0.284588
v -0.284591 -0.073384 -0.164307
v -0.328618 -0.073384 0.000000
v -0.284591 -0.073384 0.164310
v -0.164309 -0.073384 0.284592
v 0.000000 -0.073384 0.328621
v 0.164309 -0.073384 0.284592
v 0.284591 -0.073384 0.164310
v 0.328617 -0.073384 0.000000
v 0.270499 -0.073384 -0.156170
v 0.156173 -0.073384 -0.270496
v 0.172295 0.195801 -0.298420
v 0.298423 0.195801 -0.172291
v -0.000000 -0.073384 -0.312344
v 0.000000 0.195801 -0.344585
v -0.156173 -0.073385 -0.270496
v -0.172295 0.195801 -0.298420
v -0.270499 -0.073384 -0.156170
v -0.298423 0.195801 -0.172291
v -0.312345 -0.073384 0.000004
v -0.344589 0.195801 0.000000
v -0.270499 -0.073384 0.156178
v -0.298423 0.195801 0.172298
v -0.156173 -0.073384 0.270500
v -0.172295 0.195801 0.298424
v -0.000000 -0.073385 0.312347
v 0.000000 0.195801 0.344589
v 0.156172 -0.073384 0.270500
v 0.172294 0.195801 0.298424
v 0.270499 -0.073384 0.156178
v 0.298423 0.195801 0.172298
v 0.312345 -0.073384 0.000000
v 0.344589 0.195801 0.000000
v 0.296634 -0.325323 -0.171261
v 0.171261 -0.325323 -0.296631
v 0.000000 -0.325323 0.000000
v -0.000000 -0.325323 -0.342522
v -0.171262 -0.325323 -0.296631
v -0.296634 -0.325323 -0.171261
v -0.342523 -0.325323 0.000000
v -0.296634 -0.325323 0.171265
v -0.171261 -0.325323 0.296638
v 0.000000 -0.325323 0.342525
v 0.171262 -0.325323 0.296638
v 0.296634 -0.325323 0.171265
v 0.342523 -0.325323 0.000000
v 0.270020 0.137715 -0.155891
v 0.155896 0.137715 -0.270020
v 0.000000 0.130987 0.000004
v 0.000000 0.137715 -0.311790
v -0.155896 0.137715 -0.270020
v -0.270020 0.137715 -0.155891
v -0.311792 0.137715 0.000004
v -0.270020 0.137715 0.155899
v -0.155896 0.137715 0.270023
v 0.000000 0.137715 0.311794
v 0.155896 0.137715 0.270023
v 0.270020 0.137715 0.155899
v 0.311792 0.137715 0.000004
v 0.338467 0.340704 -0.195412
v 0.195414 0.340704 -0.338463
v 0.000000 0.334021 0.000004
v 0.000000 0.340704 -0.390827
v -0.195414 0.340704 -0.338463
v -0.338468 0.340704 -0.195412
v -0.390829 0.340704 0.000004
v -0.338468 0.340704 0.195415
v -0.195415 0.340704 0.338470
v 0.000000 0.340704 0.390831
v 0.195414 0.340704 0.338470
v 0.338467 0.340704 0.195415
v 0.390829 0.340704 0.000004
vt 0.635316 0.078125
vt 0.578125 0.020934
vt 0.500000 0.000000
vt 0.421875 0.020934
vt 0.364684 0.078125
vt 0.343750 0.156250
vt 0.364684 0.234375
vt 0.421875 0.291566
vt 0.500000 0.312500
vt 0.578125 0.291566
vt 0.635316 0.234375
vt 0.656250 0.156250
vt 0.375000 0.312500
vt 0.395833 0.312500
vt 0.416667 0.312500
vt 0.437500 0.312500
vt 0.458333 0.312500
vt 0.479167 0.312500
vt 0.500000 0.312500
vt 0.520833 0.312500
vt 0.541667 0.312500
vt 0.562500 0.312500
vt 0.583333 0.312500
vt 0.604167 0.312500
vt 0.625000 0.312500
vt 0.375000 0.688440
vt 0.395833 0.688440
vt 0.416667 0.688440
vt 0.437500 0.688440
vt 0.458333 0.688440
vt 0.479167 0.688440
vt 0.500000 0.688440
vt 0.520833 0.688440
vt 0.541667 0.688440
vt 0.562500 0.688440
vt 0.583333 0.688440
vt 0.604167 0.688440
vt 0.625000 0.688440
vt 0.500000 0.150000
vt 0.625000 0.500470
vt 0.375000 0.500470
vt 0.395833 0.500470
vt 0.416667 0.500470
vt 0.437500 0.500470
vt 0.458333 0.500470
vt 0.479167 0.500470
vt 0.500000 0.500470
vt 0.520833 0.500470
vt 0.541667 0.500470
vt 0.562500 0.500470
vt 0.583333 0.500470
vt 0.604167 0.500470
vt 0.375000 0.500470
vt 0.395833 0.500470
vt 0.395833 0.688440
vt 0.375000 0.688440
vt 0.416667 0.500470
vt 0.416667 0.688440
vt 0.437500 0.500470
vt 0.437500 0.688440
vt 0.458333 0.500470
vt 0.458333 0.688440
vt 0.479167 0.500470
vt 0.479167 0.688440
vt 0.500000 0.500470
vt 0.500000 0.688440
vt 0.520833 0.500470
vt 0.520833 0.688440
vt 0.541667 0.500470
vt 0.541667 0.688440
vt 0.562500 0.500470
vt 0.562500 0.688440
vt 0.583333 0.500470
vt 0.583333 0.688440
vt 0.604167 0.500470
vt 0.604167 0.688440
vt 0.625000 0.500470
vt 0.625000 0.688440
vt 0.578125 0.020934
vt 0.635316 0.078125
vt 0.500000 0.150000
vt 0.500000 0.000000
vt 0.421875 0.020934
vt 0.364684 0.078125
vt 0.343750 0.156250
vt 0.364684 0.234375
vt 0.421875 0.291566
vt 0.500000 0.312500
vt 0.578125 0.291566
vt 0.635316 0.234375
vt 0.656250 0.156250
vt 0.375000 0.312500
vt 0.395833 0.312500
vt 0.416667 0.312500
vt 0.437500 0.312500
vt 0.458333 0.312500
vt 0.479167 0.312500
vt 0.500000 0.312500
vt 0.520833 0.312500
vt 0.541667 0.312500
vt 0.562500 0.312500
vt 0.583333 0.312500
vt 0.604167 0.312500
vt 0.625000 0.312500
vt 0.395833 0.688440
vt 0.375000 0.688440
vt 0.416667 0.688440
vt 0.437500 0.688440
vt 0.458333 0.688440
vt 0.479167 0.688440
vt 0.500000 0.688440
vt 0.520833 0.688440
vt 0.541667 0.688440
vt 0.562500 0.688440
vt 0.583333 0.688440
vt 0.604167 0.688440
vt 0.625000 0.688440
vt 0.635316 0.921875
vt 0.578125 0.979066
vt 0.500000 0.837500
vt 0.500000 1.000000
vt 0.421875 0.979066
vt 0.364684 0.921875
vt 0.343750 0.843750
vt 0.364684 0.765625
vt 0.421875 0.708434
vt 0.500000 0.687500
vt 0.578125 0.708434
vt 0.635316 0.765625
vt 0.656250 0.843750
vt 0.635316 0.921875
vt 0.500000 0.837500
vt 0.578125 0.979066
vt 0.500000 1.000000
vt 0.421875 0.979066
vt 0.364684 0.921875
vt 0.343750 0.843750
vt 0.364684 0.765625
vt 0.421875 0.708434
vt 0.500000 0.687500
vt 0.578125 0.708434
vt 0.635316 0.765625
vt 0.656250 0.843750
vt 0.635316 0.921875
vt 0.578125 0.979066
vt 0.500000 1.000000
vt 0.421875 0.979066
vt 0.364684 0.921875
vt 0.343750 0.843750
vt 0.364684 0.765625
vt 0.421875 0.708434
vt 0.500000 0.687500
vt 0.578125 0.708434
vt 0.635316 0.765625
vt 0.656250 0.843750
vn 0.866016 -0.004151 -0.499999
vn 0.499996 -0.004151 -0.866018
vn 0.496453 -0.118930 -0.859878
vn 0.859877 -0.118932 -0.496454
vn 0.000000 -0.004151 -0.999991
vn -0.000000 -0.118929 -0.992903
vn -0.499997 -0.004150 -0.866017
vn -0.496453 -0.118930 -0.859878
vn -0.866018 -0.004151 -0.499995
vn -0.859879 -0.118932 -0.496451
vn -0.999991 -0.004152 0.000002
vn -0.992902 -0.118932 -0.000002
vn -0.866018 -0.004151 0.499996
vn -0.859879 -0.118931 0.496451
vn -0.499991 -0.004149 0.866021
vn -0.496445 -0.118930 0.859883
vn -0.000000 -0.004147 0.999991
vn 0.000000 -0.118929 0.992903
vn 0.499990 -0.004149 0.866021
vn 0.496445 -0.118930 0.859883
vn 0.866019 -0.004151 0.499994
vn 0.859880 -0.118932 0.496450
vn 0.999991 -0.004152 -0.000000
vn 0.992902 -0.118932 0.000000
vn 0.000000 -1.000000 0.000000
vn 0.000000 -1.000000 0.000000
vn 0.000000 -1.000000 0.000000
vn 0.000000 -1.000000 0.000000
vn 0.000000 -1.000000 0.000000
vn 0.000000 -1.000000 -0.000000
vn 0.000000 -1.000000 0.000000
vn 0.000000 -1.000000 0.000000
vn 0.000000 -1.000000 -0.000000
vn 0.000000 -1.000000 0.000000
vn 0.000000 -1.000000 -0.000000
vn 0.000000 -1.000000 -0.000000
vn 0.000000 -1.000000 0.000000
vn 0.859876 0.118934 -0.496456
vn 0.496451 0.118933 -0.859879
vn 0.000000 0.118932 -0.992902
vn -0.496452 0.118933 -0.859878
vn -0.859878 0.118935 -0.496452
vn -0.992902 0.118933 -0.000003
vn -0.859880 0.118932 0.496449
vn -0.496446 0.118937 0.859881
vn 0.000000 0.118939 0.992902
vn 0.496446 0.118938 0.859881
vn 0.859881 0.118934 0.496447
vn 0.992902 0.118933 0.000000
vn -0.866023 0.000000 0.500004
vn -0.859878 0.118931 0.496452
vn -0.496450 0.118934 0.859879
vn -0.500000 0.000000 0.866025
vn -0.000000 0.118937 0.992902
vn 0.000000 0.000000 1.000000
vn 0.496450 0.118934 0.859879
vn 0.500000 -0.000000 0.866025
vn 0.859878 0.118930 0.496452
vn 0.866023 -0.000000 0.500004
vn 0.992903 0.118932 -0.000000
vn 1.000000 0.000000 0.000000
vn 0.859880 0.118934 -0.496449
vn 0.866027 0.000000 -0.499998
vn 0.496450 0.118933 -0.859879
vn 0.500001 0.000000 -0.866025
vn -0.000000 0.118930 -0.992903
vn -0.000000 0.000000 -1.000000
vn -0.496450 0.118933 -0.859879
vn -0.500000 -0.000000 -0.866025
vn -0.859880 0.118935 -0.496449
vn -0.866027 0.000000 -0.499998
vn -0.992902 0.118932 -0.000000
vn -1.000000 0.000000 0.000000
vn 0.000000 1.000000 -0.000000
vn 0.000000 1.000000 -0.000000
vn 0.000000 1.000000 0.000000
vn 0.000000 1.000000 0.000000
vn 0.000000 1.000000 0.000000
vn 0.000000 1.000000 -0.000000
vn 0.000000 1.000000 0.000000
vn 0.000000 1.000000 0.000000
vn 0.000000 1.000000 0.000000
vn 0.000000 1.000000 0.000000
vn 0.000000 1.000000 0.000000
vn 0.000000 1.000000 0.000000
vn 0.000000 1.000000 -0.000000
vn -0.859878 -0.118931 0.496452
vn -0.496450 -0.118934 0.859879
vn 0.000000 -0.118937 0.992902
vn 0.496450 -0.118934 0.859879
vn 0.859878 -0.118931 0.496452
vn 0.992903 -0.118932 -0.000000
vn 0.859880 -0.118934 -0.496449
vn 0.496450 -0.118933 -0.859879
vn 0.000000 -0.118930 -0.992903
vn -0.496450 -0.118933 -0.859879
vn -0.859880 -0.118935 -0.496449
vn -0.992902 -0.118932 -0.000000
vn -0.057704 -0.993318 0.099949
vn -0.099957 -0.993317 0.057707
vn -0.099955 -0.993317 0.057711
vn -0.057707 -0.993318 0.099948
vn 0.000000 -0.993318 0.115410
vn 0.000000 -0.993318 0.115410
vn 0.057705 -0.993318 0.099952
vn 0.057708 -0.993318 0.099951
vn 0.099952 -0.993318 0.057705
vn 0.099950 -0.993318 0.057709
vn 0.115413 -0.993318 -0.000001
vn 0.115413 -0.993318 -0.000000
vn 0.099954 -0.993317 -0.057705
vn 0.099951 -0.993317 -0.057709
vn 0.057703 -0.993318 -0.099949
vn 0.057706 -0.993318 -0.099947
vn -0.000000 -0.993319 -0.115405
vn -0.000000 -0.993319 -0.115405
vn -0.057704 -0.993318 -0.099950
vn -0.057706 -0.993318 -0.099948
vn -0.099960 -0.993317 -0.057707
vn -0.099957 -0.993317 -0.057712
vn -0.115424 -0.993316 -0.000000
vn -0.115424 -0.993316 -0.000000
vn -0.014806 0.999854 0.008548
vn -0.008548 0.999854 0.014806
vn -0.000000 1.000000 -0.000000
vn 0.000000 0.999854 0.017097
vn 0.008548 0.999854 0.014806
vn 0.014806 0.999854 0.008548
vn 0.017097 0.999854 -0.000000
vn 0.014806 0.999854 -0.008548
vn 0.008548 0.999854 -0.014806
vn 0.000000 0.999854 -0.017097
vn -0.008548 0.999854 -0.014806
vn -0.014806 0.999854 -0.008548
vn -0.017097 0.999854 0.000000
vn 0.018684 -0.999767 -0.010787
vn 0.000000 -1.000000 0.000000
vn 0.010787 -0.999767 -0.018684
vn -0.000000 -0.999767 -0.021575
vn -0.010787 -0.999767 -0.018684
vn -0.018684 -0.999767 -0.010787
vn -0.021575 -0.999767 0.000000
vn -0.018684 -0.999767 0.010787
vn -0.010787 -0.999767 0.018684
vn -0.000000 -0.999767 0.021575
vn 0.010787 -0.999767 0.018684
vn 0.018684 -0.999767 0.010787
vn 0.021575 -0.999767 0.000000
vn 0.807012 -0.362830 -0.465925
vn 0.465932 -0.362825 -0.807010
vn 0.465934 -0.362825 -0.807009
vn 0.807011 -0.362830 -0.465927
vn 0.000000 -0.362823 -0.931858
vn -0.000000 -0.362823 -0.931858
vn -0.465932 -0.362825 -0.807010
vn -0.465934 -0.362825 -0.807009
vn -0.807012 -0.362830 -0.465925
vn -0.807011 -0.362830 -0.465927
vn -0.931855 -0.362831 0.000000
vn -0.931855 -0.362831 -0.000000
vn -0.807010 -0.362829 0.465929
vn -0.807011 -0.362829 0.465927
vn -0.465928 -0.362830 0.807011
vn -0.465928 -0.362830 0.807010
vn 0.000000 -0.362830 0.931855
vn -0.000000 -0.362830 0.931855
vn 0.465928 -0.362830 0.807010
vn 0.465928 -0.362830 0.807010
vn 0.807010 -0.362829 0.465929
vn 0.807011 -0.362829 0.465927
vn 0.931855 -0.362832 0.000000
vn 0.931855 -0.362832 -0.000000
s 1
g flaska3
usemtl blinn10SG
f 38/41/1 39/42/2 40/105/3 41/106/4
f 39/42/2 42/43/5 43/107/6 40/105/3
f 42/43/5 44/44/7 45/108/8 43/107/6
f 44/44/7 46/45/9 47/109/10 45/108/8
f 46/45/9 48/46/11 49/110/12 47/109/10
f 48/46/11 50/47/13 51/111/14 49/110/12
f 50/47/13 52/48/15 53/112/16 51/111/14
f 52/48/15 54/49/17 55/113/18 53/112/16
f 54/49/17 56/50/19 57/114/20 55/113/18
f 56/50/19 58/51/21 59/115/22 57/114/20
f 58/51/21 60/52/23 61/116/24 59/115/22
f 60/52/23 38/40/1 41/117/4 61/116/24
s 2
f 63/2/25 62/1/26 64/39/27
f 65/3/28 63/2/25 64/39/27
f 66/4/29 65/3/28 64/39/27
f 67/5/30 66/4/29 64/39/27
f 68/6/31 67/5/30 64/39/27
f 69/7/32 68/6/31 64/39/27
f 70/8/33 69/7/32 64/39/27
f 71/9/34 70/8/33 64/39/27
f 72/10/35 71/9/34 64/39/27
f 73/11/36 72/10/35 64/39/27
f 74/12/37 73/11/36 64/39/27
f 62/1/26 74/12/37 64/39/27
s 1
f 62/13/38 63/14/39 39/42/2 38/41/1
f 63/14/39 65/15/40 42/43/5 39/42/2
f 65/15/40 66/16/41 44/44/7 42/43/5
f 66/16/41 67/17/42 46/45/9 44/44/7
f 67/17/42 68/18/43 48/46/11 46/45/9
f 68/18/43 69/19/44 50/47/13 48/46/11
f 69/19/44 70/20/45 52/48/15 50/47/13
f 70/20/45 71/21/46 54/49/17 52/48/15
f 71/21/46 72/22/47 56/50/19 54/49/17
f 72/22/47 73/23/48 58/51/21 56/50/19
f 73/23/48 74/24/49 60/52/23 58/51/21
f 74/24/49 62/25/38 38/40/1 60/52/23
s 3
f 26/53/50 13/56/51 14/55/52 27/54/53
f 27/54/53 14/55/52 15/58/54 28/57/55
f 28/57/55 15/58/54 16/60/56 29/59/57
f 29/59/57 16/60/56 17/62/58 30/61/59
f 30/61/59 17/62/58 18/64/60 31/63/61
f 31/63/61 18/64/60 19/66/62 32/65/63
f 32/65/63 19/66/62 20/68/64 33/67/65
f 33/67/65 20/68/64 21/70/66 34/69/67
f 34/69/67 21/70/66 22/72/68 35/71/69
f 35/71/69 22/72/68 23/74/70 36/73/71
f 36/73/71 23/74/70 24/76/72 37/75/73
f 37/75/73 24/76/72 13/78/51 26/77/50
s 4
f 2/79/74 25/81/75 1/80/76
f 3/82/77 25/81/75 2/79/74
f 4/83/78 25/81/75 3/82/77
f 5/84/79 25/81/75 4/83/78
f 6/85/80 25/81/75 5/84/79
f 7/86/81 25/81/75 6/85/80
f 8/87/82 25/81/75 7/86/81
f 9/88/83 25/81/75 8/87/82
f 10/89/84 25/81/75 9/88/83
f 11/90/85 25/81/75 10/89/84
f 12/91/86 25/81/75 11/90/85
f 1/80/76 25/81/75 12/91/86
s 3
f 1/92/87 26/53/50 27/54/53 2/93/88
f 2/93/88 27/54/53 28/57/55 3/94/89
f 3/94/89 28/57/55 29/59/57 4/95/90
f 4/95/90 29/59/57 30/61/59 5/96/91
f 5/96/91 30/61/59 31/63/61 6/97/92
f 6/97/92 31/63/61 32/65/63 7/98/93
f 7/98/93 32/65/63 33/67/65 8/99/94
f 8/99/94 33/67/65 34/69/67 9/100/95
f 9/100/95 34/69/67 35/71/69 10/101/96
f 10/101/96 35/71/69 36/73/71 11/102/97
f 11/102/97 36/73/71 37/75/73 12/103/98
f 12/103/98 37/75/73 26/77/50 1/104/87
s 5
f 14/27/99 13/26/100 41/106/101 40/105/102
f 15/28/103 14/27/99 40/105/102 43/107/104
f 16/29/105 15/28/103 43/107/104 45/108/106
f 17/30/107 16/29/105 45/108/106 47/109/108
f 18/31/109 17/30/107 47/109/108 49/110/110
f 19/32/111 18/31/109 49/110/110 51/111/112
f 20/33/113 19/32/111 51/111/112 53/112/114
f 21/34/115 20/33/113 53/112/114 55/113/116
f 22/35/117 21/34/115 55/113/116 57/114/118
f 23/36/119 22/35/117 57/114/118 59/115/120
f 24/37/121 23/36/119 59/115/120 61/116/122
f 13/38/100 24/37/121 61/116/122 41/117/101
s 6
usemtl initialShadingGroup
f 88/118/123 89/119/124 90/120/125
f 89/119/124 91/121/126 90/120/125
f 91/121/126 92/122/127 90/120/125
f 92/122/127 93/123/128 90/120/125
f 93/123/128 94/124/129 90/120/125
f 94/124/129 95/125/130 90/120/125
f 95/125/130 96/126/131 90/120/125
f 96/126/131 97/127/132 90/120/125
f 97/127/132 98/128/133 90/120/125
f 98/128/133 99/129/134 90/120/125
f 99/129/134 100/130/135 90/120/125
f 100/130/135 88/118/123 90/120/125
s 7
f 75/131/136 77/132/137 76/133/138
f 76/133/138 77/132/137 78/134/139
f 78/134/139 77/132/137 79/135/140
f 79/135/140 77/132/137 80/136/141
f 80/136/141 77/132/137 81/137/142
f 81/137/142 77/132/137 82/138/143
f 82/138/143 77/132/137 83/139/144
f 83/139/144 77/132/137 84/140/145
f 84/140/145 77/132/137 85/141/146
f 85/141/146 77/132/137 86/142/147
f 86/142/147 77/132/137 87/143/148
f 87/143/148 77/132/137 75/131/136
s 8
f 75/144/149 76/145/150 89/119/151 88/118/152
f 76/145/150 78/146/153 91/121/154 89/119/151
f 78/146/153 79/147/155 92/122/156 91/121/154
f 79/147/155 80/148/157 93/123/158 92/122/156
f 80/148/157 81/149/159 94/124/160 93/123/158
f 81/149/159 82/150/161 95/125/162 94/124/160
f 82/150/161 83/151/163 96/126/164 95/125/162
f 83/151/163 84/152/165 97/127/166 96/126/164
f 84/152/165 85/153/167 98/128/168 97/127/166
f 85/153/167 86/154/169 99/129/170 98/128/168
f 86/154/169 87/155/171 100/130/172 99/129/170
f 87/155/171 75/144/149 88/118/152 100/130/172
