# This file uses centimeters as units for non-parametric coordinates.

mtllib fireplace.mtl
g default
v -0.500000 1.824512 1.639601
v -0.500000 1.824512 -1.639601
v -0.098826 1.824512 -1.639601
v -0.098826 1.824512 1.639601
v -0.500000 1.938170 -1.639601
v -0.500000 1.938170 1.639600
v -0.637735 2.195601 2.609108
v -0.637735 2.225686 2.579023
v -0.667820 2.195601 2.579023
v 1.399220 2.195601 2.579023
v 1.369135 2.225686 2.579023
v 1.369135 2.195601 2.609108
v -0.667820 2.195601 -2.579023
v -0.637735 2.225686 -2.579023
v -0.637735 2.195601 -2.609108
v 1.369135 2.195601 -2.609108
v 1.369135 2.225686 -2.579023
v 1.399220 2.195601 -2.579023
v -0.667820 1.854597 -2.579023
v -0.637735 1.854597 -2.609108
v -0.637735 1.824512 -2.579023
v 1.369135 1.824512 -2.579023
v 1.369135 1.854597 -2.609108
v 1.399220 1.854597 -2.579023
v -0.667820 1.854597 2.579023
v -0.637735 1.824512 2.579023
v -0.637735 1.854597 2.609108
v 1.369135 1.854597 2.609108
v 1.369135 1.824512 2.579023
v 1.399220 1.854597 2.579023
v -0.500000 -0.987693 1.639601
v -0.459887 -1.027807 1.639601
v -0.459887 -1.027807 -1.639601
v -0.500000 -0.987693 -1.639601
v -0.098826 -0.987693 -1.639601
v -0.138940 -1.027807 -1.639601
v -0.138940 -1.027807 1.639601
v -0.098826 -0.987693 1.639601
v -0.459887 -1.027807 -1.679714
v 1.231400 -0.987693 -1.679714
v 1.191287 -0.987693 -1.639601
v 1.191287 -1.027807 -1.679714
v -0.500000 -0.987693 -2.312182
v -0.459887 -0.987693 -2.352296
v -0.459887 -1.027807 -2.312182
v 1.191287 -1.027807 -2.312182
v 1.191287 -0.987693 -2.352296
v 1.231400 -0.987693 -2.312182
v 1.191287 1.938170 -1.639601
v 1.231400 1.938170 -1.679714
v -0.459887 1.938170 -2.352296
v -0.500000 1.938170 -2.312182
v 1.231400 1.938170 -2.312182
v 1.191287 1.938170 -2.352296
v -0.459887 -1.027807 2.312182
v -0.459887 -0.987693 2.352296
v -0.500000 -0.987693 2.312182
v 1.231400 -0.987693 2.312182
v 1.191287 -0.987693 2.352296
v 1.191287 -1.027807 2.312182
v -0.459887 -1.027807 1.679713
v 1.191287 -1.027807 1.679713
v 1.191287 -0.987693 1.639600
v 1.231400 -0.987693 1.679713
v -0.500000 1.938170 2.312182
v -0.459887 1.938170 2.352296
v 1.191287 1.938170 2.352296
v 1.231400 1.938170 2.312182
v 1.231400 1.938170 1.679713
v 1.191287 1.938170 1.639600
vt 0.378639 0.981252
vt 0.375000 0.981252
vt 0.375000 0.768748
vt 0.378639 0.000000
vt 0.378639 0.001441
vt 0.625000 0.981252
vt 0.621361 0.981252
vt 0.625000 0.768748
vt 0.643746 0.001445
vt 0.375000 0.268748
vt 0.375000 0.481252
vt 0.378639 0.248559
vt 0.621361 0.248559
vt 0.625000 0.268748
vt 0.375000 0.501441
vt 0.375000 0.748559
vt 0.378639 0.481252
vt 0.621361 0.481252
vt 0.625000 0.501441
vt 0.625000 0.748559
vt 0.378639 0.748559
vt 0.621361 0.748559
vt 0.621361 0.768748
vt 0.621361 0.001442
vt 0.378639 0.268748
vt 0.621361 0.268748
vt 0.378639 0.501441
vt 0.621361 0.501442
vt 0.378639 0.768748
vt 0.856250 0.001445
vt 0.856252 0.248559
vt 0.143746 0.001445
vt 0.356250 0.001445
vt 0.356252 0.248559
vt 0.143748 0.248559
vt 0.621361 0.000000
vt 0.643748 0.248559
vt 0.625000 0.481252
vt 0.378516 0.000000
vt 0.625000 0.000000
vt 0.625000 0.250000
vt 0.149998 0.250000
vt 0.149997 0.000000
vt 0.350002 0.250000
vt 0.378516 0.500000
vt 0.625000 0.500000
vt 0.625000 0.750000
vt 0.350003 0.000000
vt 0.378516 0.250000
vt 0.375000 0.500000
vt 0.378516 0.750000
vt 0.375000 0.750000
vt 0.380792 0.985929
vt 0.375000 1.000000
vt 0.375000 0.764071
vt 0.380792 -0.000000
vt 0.625000 0.985929
vt 0.619208 0.985929
vt 0.625000 0.764071
vt 0.639071 0.003381
vt 0.639071 0.250000
vt 0.375000 0.746619
vt 0.375000 0.500000
vt 0.380792 0.746619
vt 0.619208 0.764071
vt 0.619208 0.746619
vt 0.619208 0.500000
vt 0.625000 0.500000
vt 0.380792 0.985929
vt 0.375000 0.985929
vt 0.380792 -0.000000
vt 0.380792 0.003381
vt 0.380792 0.250000
vt 0.625000 0.985929
vt 0.619208 0.985929
vt 0.625000 0.764071
vt 0.639071 0.003381
vt 0.639071 0.250000
vt 0.619208 0.764071
vt 0.619208 0.746619
vt 0.619208 0.500000
vt 0.625000 0.500000
vt 0.619208 0.003381
vt 0.619208 0.250000
vt 0.380792 0.500000
vt 0.380792 0.764071
vt 0.860929 0.003381
vt 0.860929 0.250000
vt 0.139071 0.003381
vt 0.375000 0.003381
vt 0.375000 0.250000
vt 0.139071 0.250000
vt 0.619208 0.003381
vt 0.619208 0.250000
vt 0.375000 0.500000
vt 0.375000 0.746619
vt 0.380792 0.764071
vt 0.860929 0.003381
vt 0.860929 0.250000
vt 0.125000 0.003381
vt 0.360929 0.003381
vt 0.360929 0.250000
vt 0.125000 0.250000
vt 0.619208 -0.000000
vt 0.625000 0.746619
vt 0.619208 -0.000000
vt 0.625000 0.746619
vn -1.000000 0.000000 0.000000
vn -1.000000 0.000000 0.000000
vn -1.000000 0.000000 0.000000
vn -1.000000 0.000000 0.000000
vn 1.000000 0.000000 0.000000
vn 1.000000 0.000000 0.000000
vn 1.000000 0.000000 0.000000
vn 1.000000 0.000000 0.000000
vn 0.000000 -1.000000 0.000000
vn 0.000000 -1.000000 0.000000
vn 0.000000 -1.000000 0.000000
vn 0.000000 -1.000000 0.000000
vn -0.707102 0.000000 0.707111
vn -0.707102 0.000000 0.707111
vn -0.707102 0.000000 0.707111
vn -0.707102 0.000000 0.707111
vn 0.000000 0.707100 0.707114
vn 0.000000 0.707100 0.707114
vn 0.000000 0.707100 0.707114
vn 0.000000 0.707100 0.707114
vn -0.707107 0.707106 0.000000
vn -0.707107 0.707106 0.000000
vn -0.707107 0.707106 0.000000
vn -0.707107 0.707106 0.000000
vn 0.707103 0.000000 0.707110
vn 0.707103 0.000000 0.707110
vn 0.707103 0.000000 0.707110
vn 0.707103 0.000000 0.707110
vn 0.707107 0.707106 0.000000
vn 0.707107 0.707106 0.000000
vn 0.707107 0.707106 0.000000
vn 0.707107 0.707106 0.000000
vn -0.707107 0.000000 -0.707107
vn -0.707107 0.000000 -0.707107
vn -0.707107 0.000000 -0.707107
vn -0.707107 0.000000 -0.707107
vn 0.000000 0.707105 -0.707108
vn 0.000000 0.707105 -0.707108
vn 0.000000 0.707105 -0.707108
vn 0.000000 0.707105 -0.707108
vn 0.707107 0.000000 -0.707106
vn 0.707107 0.000000 -0.707106
vn 0.707107 0.000000 -0.707106
vn 0.707107 0.000000 -0.707106
vn -0.707106 -0.707108 0.000000
vn -0.707106 -0.707108 0.000000
vn -0.707106 -0.707108 0.000000
vn -0.707106 -0.707108 0.000000
vn 0.000000 -0.707108 -0.707106
vn 0.000000 -0.707108 -0.707106
vn 0.000000 -0.707108 -0.707106
vn 0.000000 -0.707108 -0.707106
vn 0.707106 -0.707108 0.000000
vn 0.707106 -0.707108 0.000000
vn 0.707106 -0.707108 0.000000
vn 0.707106 -0.707108 0.000000
vn 0.000000 -0.707102 0.707111
vn 0.000000 -0.707102 0.707111
vn 0.000000 -0.707102 0.707111
vn 0.000000 -0.707102 0.707111
vn 0.000000 1.000000 0.000000
vn 0.000000 1.000000 0.000000
vn 0.000000 1.000000 0.000000
vn 0.000000 1.000000 0.000000
vn 0.000000 0.000000 -1.000000
vn 0.000000 0.000000 -1.000000
vn 0.000000 0.000000 -1.000000
vn 0.000000 0.000000 -1.000000
vn 0.000000 -1.000000 -0.000000
vn 0.000000 -1.000000 -0.000000
vn 0.000000 -1.000000 -0.000000
vn 0.000000 -1.000000 -0.000000
vn 0.000000 0.000000 1.000000
vn 0.000000 0.000000 1.000000
vn 0.000000 0.000000 1.000000
vn 0.000000 0.000000 1.000000
vn 1.000000 0.000000 0.000000
vn 1.000000 0.000000 0.000000
vn 1.000000 0.000000 0.000000
vn 1.000000 0.000000 0.000000
vn -1.000000 0.000000 0.000000
vn -1.000000 0.000000 0.000000
vn -1.000000 0.000000 0.000000
vn -1.000000 0.000000 0.000000
vn -0.577347 0.577347 0.577357
vn -0.577347 0.577347 0.577357
vn -0.577347 0.577347 0.577357
vn 0.577347 0.577347 0.577357
vn 0.577347 0.577347 0.577357
vn 0.577347 0.577347 0.577357
vn -0.577350 0.577350 -0.577350
vn -0.577350 0.577350 -0.577350
vn -0.577350 0.577350 -0.577350
vn 0.577350 0.577350 -0.577350
vn 0.577350 0.577350 -0.577350
vn 0.577350 0.577350 -0.577350
vn -0.577352 -0.577352 -0.577347
vn -0.577352 -0.577352 -0.577347
vn -0.577352 -0.577352 -0.577347
vn 0.577350 -0.577350 -0.577350
vn 0.577350 -0.577350 -0.577350
vn 0.577350 -0.577350 -0.577350
vn -0.577350 -0.577350 0.577350
vn -0.577350 -0.577350 0.577350
vn -0.577350 -0.577350 0.577350
vn 0.577349 -0.577349 0.577353
vn 0.577349 -0.577349 0.577353
vn 0.577349 -0.577349 0.577353
vn -0.707106 -0.707107 0.000000
vn -0.707106 -0.707107 0.000000
vn -0.707106 -0.707107 0.000000
vn -0.707106 -0.707107 0.000000
vn 0.707107 -0.707107 0.000000
vn 0.707107 -0.707107 0.000000
vn 0.707107 -0.707107 0.000000
vn 0.707107 -0.707107 0.000000
vn -0.707107 -0.707107 0.000000
vn -0.707107 -0.707107 0.000000
vn -0.707107 -0.707107 0.000000
vn -0.707107 -0.707107 0.000000
vn 0.000000 -0.707108 0.707106
vn 0.000000 -0.707108 0.707106
vn 0.000000 -0.707108 0.707106
vn 0.000000 -0.707108 0.707106
vn 0.707107 -0.707106 0.000000
vn 0.707107 -0.707106 0.000000
vn 0.707107 -0.707106 0.000000
vn 0.707107 -0.707106 0.000000
vn 0.707109 0.000000 0.707105
vn 0.707109 0.000000 0.707105
vn 0.707109 0.000000 0.707105
vn 0.707109 0.000000 0.707105
vn -0.707107 0.000000 -0.707106
vn -0.707107 0.000000 -0.707106
vn -0.707107 0.000000 -0.707106
vn -0.707107 0.000000 -0.707106
vn 0.000000 -0.707108 -0.707106
vn 0.000000 -0.707108 -0.707106
vn 0.000000 -0.707108 -0.707106
vn 0.000000 -0.707108 -0.707106
vn 0.707107 0.000000 -0.707106
vn 0.707107 0.000000 -0.707106
vn 0.707107 0.000000 -0.707106
vn 0.707107 0.000000 -0.707106
vn -0.707107 -0.707107 0.000000
vn -0.707107 -0.707107 0.000000
vn -0.707107 -0.707107 0.000000
vn -0.707107 -0.707107 0.000000
vn 0.000000 -0.707108 0.707106
vn 0.000000 -0.707108 0.707106
vn 0.000000 -0.707108 0.707106
vn 0.000000 -0.707108 0.707106
vn -0.707107 0.000000 0.707106
vn -0.707107 0.000000 0.707106
vn -0.707107 0.000000 0.707106
vn -0.707107 0.000000 0.707106
vn 0.707107 -0.707106 0.000000
vn 0.707107 -0.707106 0.000000
vn 0.707107 -0.707106 0.000000
vn 0.707107 -0.707106 0.000000
vn 0.707107 0.000000 0.707106
vn 0.707107 0.000000 0.707106
vn 0.707107 0.000000 0.707106
vn 0.707107 0.000000 0.707106
vn -0.000000 -0.707103 -0.707110
vn -0.000000 -0.707103 -0.707110
vn -0.000000 -0.707103 -0.707110
vn -0.000000 -0.707103 -0.707110
vn 0.707107 0.000000 -0.707106
vn 0.707107 0.000000 -0.707106
vn 0.707107 0.000000 -0.707106
vn 0.707107 0.000000 -0.707106
vn 0.000000 0.000000 1.000000
vn 0.000000 0.000000 1.000000
vn 0.000000 0.000000 1.000000
vn 0.000000 0.000000 1.000000
vn 0.000000 0.000000 -1.000000
vn 0.000000 0.000000 -1.000000
vn 0.000000 0.000000 -1.000000
vn 0.000000 0.000000 -1.000000
vn 0.000000 -1.000000 0.000000
vn 0.000000 -1.000000 0.000000
vn 0.000000 -1.000000 0.000000
vn 0.000000 -1.000000 0.000000
vn 1.000000 0.000000 0.000000
vn 1.000000 0.000000 0.000000
vn 1.000000 0.000000 0.000000
vn 1.000000 0.000000 0.000000
vn -1.000000 0.000000 0.000000
vn -1.000000 0.000000 0.000000
vn -1.000000 0.000000 0.000000
vn -1.000000 0.000000 0.000000
vn 0.000000 0.000000 1.000000
vn 0.000000 0.000000 1.000000
vn 0.000000 0.000000 1.000000
vn 0.000000 0.000000 1.000000
vn -0.000000 -0.000000 -1.000000
vn -0.000000 -0.000000 -1.000000
vn -0.000000 -0.000000 -1.000000
vn -0.000000 -0.000000 -1.000000
vn 0.000000 -1.000000 0.000000
vn 0.000000 -1.000000 0.000000
vn 0.000000 -1.000000 0.000000
vn 0.000000 -1.000000 0.000000
vn 1.000000 0.000000 0.000000
vn 1.000000 0.000000 0.000000
vn 1.000000 0.000000 0.000000
vn 1.000000 0.000000 0.000000
vn -1.000000 0.000000 0.000000
vn -1.000000 0.000000 0.000000
vn -1.000000 0.000000 0.000000
vn -1.000000 0.000000 0.000000
vn 0.577354 -0.577349 0.577349
vn 0.577354 -0.577349 0.577349
vn 0.577354 -0.577349 0.577349
vn -0.577352 -0.577352 -0.577347
vn -0.577352 -0.577352 -0.577347
vn -0.577352 -0.577352 -0.577347
vn 0.577354 -0.577349 -0.577349
vn 0.577354 -0.577349 -0.577349
vn 0.577354 -0.577349 -0.577349
vn -0.577352 -0.577352 0.577347
vn -0.577352 -0.577352 0.577347
vn -0.577352 -0.577352 0.577347
vn 0.577354 -0.577349 0.577349
vn 0.577354 -0.577349 0.577349
vn 0.577354 -0.577349 0.577349
vn 0.577354 -0.577349 -0.577349
vn 0.577354 -0.577349 -0.577349
vn 0.577354 -0.577349 -0.577349
s off
g fireplace
usemtl blinn5SG
f 34/49/1 31/39/2 1/40/3 2/41/4
f 38/51/5 35/45/6 3/46/7 4/47/8
f 36/42/9 37/43/10 32/48/11 33/44/12
f 7/1/13 9/2/14 25/3/15 27/29/16
f 8/5/17 7/4/18 12/36/19 11/24/20
f 9/33/21 8/5/22 14/12/23 13/34/24
f 10/6/25 12/7/26 28/23/27 30/8/28
f 11/24/29 10/9/30 18/37/31 17/13/32
f 13/10/33 15/25/34 20/17/35 19/11/36
f 15/25/37 14/12/38 17/13/39 16/26/40
f 16/26/41 18/14/42 24/38/43 23/18/44
f 19/15/45 21/27/46 26/21/47 25/16/48
f 21/27/49 20/17/50 23/18/51 22/28/52
f 22/28/53 24/19/54 30/20/55 29/22/56
f 27/29/57 26/21/58 29/22/59 28/23/60
f 8/5/61 11/24/62 17/13/63 14/12/64
f 15/25/65 16/26/66 23/18/67 20/17/68
f 21/27/69 22/28/70 29/22/71 26/21/72
f 27/29/73 28/23/74 12/7/75 7/1/76
f 10/9/77 30/30/78 24/31/79 18/37/80
f 25/32/81 9/33/82 13/34/83 19/35/84
f 7/4/85 8/5/86 9/33/87
f 10/9/88 11/24/89 12/36/90
f 13/34/91 14/12/92 15/25/93
f 16/26/94 17/13/95 18/37/96
f 19/11/97 20/17/98 21/27/99
f 22/28/100 23/18/101 24/38/102
f 25/16/103 26/21/104 27/29/105
f 28/23/106 29/22/107 30/20/108
f 32/48/109 31/39/110 34/49/111 33/44/112
f 36/50/113 35/45/114 38/51/115 37/52/116
f 39/53/117 34/54/118 43/55/119 45/86/120
f 34/90/121 39/56/122 42/104/123 41/83/124
f 40/57/125 42/58/126 46/65/127 48/59/128
f 41/83/129 40/60/130 50/61/131 49/84/132
f 44/64/133 43/62/134 52/63/135 51/85/136
f 45/86/137 44/64/138 47/66/139 46/65/140
f 48/105/141 47/66/142 54/67/143 53/68/144
f 55/69/145 57/70/146 31/96/147 61/97/148
f 56/72/149 55/71/150 60/106/151 59/93/152
f 57/101/153 56/72/154 66/73/155 65/102/156
f 58/74/157 60/75/158 62/79/159 64/76/160
f 59/93/161 58/77/162 68/78/163 67/94/164
f 61/97/165 31/96/166 63/80/167 62/79/168
f 64/107/169 63/80/170 70/81/171 69/82/172
f 34/90/173 41/83/174 49/84/175 5/91/176
f 44/64/177 51/85/178 54/67/179 47/66/180
f 45/86/181 46/65/182 42/58/183 39/53/184
f 40/60/185 48/87/186 53/88/187 50/61/188
f 43/89/189 34/90/190 5/91/191 52/92/192
f 56/72/193 59/93/194 67/94/195 66/73/196
f 6/95/197 70/81/198 63/80/199 31/96/200
f 61/97/201 62/79/202 60/75/203 55/69/204
f 58/77/205 64/98/206 69/99/207 68/78/208
f 31/100/209 57/101/210 65/102/211 6/103/212
f 40/60/213 41/83/214 42/104/215
f 43/62/216 44/64/217 45/86/218
f 46/65/219 47/66/220 48/105/221
f 55/71/222 56/72/223 57/101/224
f 58/77/225 59/93/226 60/106/227
f 62/79/228 63/80/229 64/107/230
