# This file uses centimeters as units for non-parametric coordinates.

mtllib flask1.mtl
g default
v 0.041389 0.299549 -0.085922
v -0.000000 0.299549 -0.000004
v -0.017017 0.299549 -0.093842
v -0.068924 0.299549 -0.065918
v -0.094503 0.299549 -0.012814
v -0.083987 0.299549 0.045181
v -0.041389 0.299549 0.085915
v 0.017018 0.299549 0.093834
v 0.068924 0.299549 0.065910
v 0.094504 0.299549 0.012810
v 0.083986 0.299549 -0.045185
v 0.048453 0.431273 -0.100582
v -0.000000 0.431273 0.000000
v -0.019922 0.431273 -0.109852
v -0.080686 0.431273 -0.077164
v -0.110631 0.431273 -0.015003
v -0.098320 0.431273 0.052891
v -0.048452 0.431273 0.100578
v 0.019922 0.431273 0.109848
v 0.080686 0.431273 0.077160
v 0.110632 0.431273 0.014996
v 0.098319 0.431273 -0.052895
v 0.055720 0.247861 -0.115673
v -0.022910 0.247861 -0.126331
v -0.092789 0.247861 -0.088741
v -0.127226 0.247861 -0.017254
v -0.113067 0.247861 0.060825
v -0.055719 0.247861 0.115665
v 0.022910 0.247861 0.126328
v 0.092790 0.247861 0.088737
v 0.127227 0.247861 0.017246
v 0.113066 0.247861 -0.060829
v 0.046559 0.316092 -0.096653
v -0.019143 0.316092 -0.105564
v -0.077533 0.316092 -0.074150
v -0.106308 0.316092 -0.014420
v -0.094477 0.316092 0.050823
v -0.046559 0.316092 0.096645
v 0.019143 0.316092 0.105556
v 0.077533 0.316092 0.074142
v 0.106307 0.316092 0.014412
v 0.094476 0.316092 -0.050827
v 0.042942 0.316092 -0.089146
v -0.017657 0.316092 -0.097363
v -0.071511 0.316092 -0.068390
v -0.098050 0.316092 -0.013294
v -0.087138 0.316092 0.046875
v -0.042942 0.316092 0.089138
v 0.017656 0.316092 0.097355
v 0.071510 0.316092 0.068386
v 0.098050 0.316092 0.013294
v 0.087138 0.316092 -0.046883
v 0.042942 0.254635 -0.089146
v -0.000000 0.254635 -0.000004
v -0.017657 0.254635 -0.097363
v -0.071511 0.254635 -0.068390
v -0.098050 0.254635 -0.013294
v -0.087138 0.244348 0.046875
v -0.042942 0.254635 0.089138
v 0.017656 0.254635 0.097355
v 0.071510 0.254635 0.068386
v 0.098050 0.254635 0.013294
v 0.087138 0.254635 -0.046883
v 0.005252 -0.405422 0.298759
v 0.025976 -0.431273 0.280346
v 0.041329 -0.411150 0.308884
v 0.246406 -0.405422 0.169029
v 0.234973 -0.411149 0.204712
v 0.219619 -0.431273 0.176174
v -0.246406 0.226777 -0.169029
v -0.219620 0.252628 -0.176174
v -0.234974 0.232504 -0.204716
v -0.005253 0.226776 -0.298767
v -0.041330 0.232504 -0.308891
v -0.025976 0.252628 -0.280354
v -0.234974 -0.411150 -0.204716
v -0.219273 -0.431273 -0.176105
v -0.246406 -0.405422 -0.169029
v -0.005253 -0.405422 -0.298767
v -0.025976 -0.431273 -0.280354
v -0.041330 -0.411149 -0.308891
v 0.305510 -0.108684 0.336681
v 0.320613 -0.089323 0.306965
v 0.305510 -0.069962 0.336681
v 0.041329 0.232504 0.308884
v 0.026108 0.252628 0.280018
v 0.005252 0.226777 0.298759
v -0.112582 -0.069962 -0.440475
v -0.079460 -0.089323 -0.436703
v -0.112582 -0.108684 -0.440475
v 0.112581 -0.069962 0.440475
v 0.079459 -0.089323 0.436703
v 0.112581 -0.108684 0.440475
v -0.305864 -0.070202 -0.336632
v -0.305509 -0.108684 -0.336689
v -0.320613 -0.089323 -0.306973
v 0.246406 0.226777 0.169029
v 0.219619 0.252628 0.176174
v 0.234973 0.232504 0.204712
vt 0.500000 0.837500
vt 0.626409 0.935591
vt 0.548284 0.992353
vt 0.451716 0.992353
vt 0.373591 0.935591
vt 0.343750 0.843750
vt 0.373591 0.751909
vt 0.451716 0.695147
vt 0.548284 0.695147
vt 0.626409 0.751908
vt 0.656250 0.843750
vt 0.500000 0.837500
vt 0.626409 0.935591
vt 0.548284 0.992353
vt 0.451716 0.992353
vt 0.373591 0.935591
vt 0.343750 0.843750
vt 0.373591 0.751909
vt 0.451716 0.695147
vt 0.548284 0.695147
vt 0.626409 0.751908
vt 0.656250 0.843750
vt 0.626409 0.935591
vt 0.548284 0.992353
vt 0.451716 0.992353
vt 0.373591 0.935591
vt 0.343750 0.843750
vt 0.373591 0.751909
vt 0.451716 0.695147
vt 0.548284 0.695147
vt 0.626409 0.751908
vt 0.656250 0.843750
vt 0.387500 0.688440
vt 0.387500 0.312500
vt 0.412500 0.312500
vt 0.412500 0.688440
vt 0.437500 0.312500
vt 0.437500 0.688440
vt 0.462500 0.312500
vt 0.462500 0.688440
vt 0.487500 0.312500
vt 0.487500 0.688440
vt 0.512500 0.312500
vt 0.512500 0.688440
vt 0.537500 0.312500
vt 0.537500 0.688440
vt 0.562500 0.312500
vt 0.562500 0.688440
vt 0.587500 0.312500
vt 0.587500 0.688440
vt 0.612500 0.312500
vt 0.612500 0.688440
vt 0.500000 0.837500
vt 0.626409 0.935591
vt 0.548284 0.992353
vt 0.451716 0.992353
vt 0.373591 0.935591
vt 0.343750 0.843750
vt 0.373591 0.751909
vt 0.451716 0.695147
vt 0.548284 0.695147
vt 0.626409 0.751908
vt 0.656250 0.843750
vt 0.626409 0.935591
vt 0.548284 0.992353
vt 0.548284 0.992353
vt 0.626409 0.935591
vt 0.451716 0.992353
vt 0.451716 0.992353
vt 0.373591 0.935591
vt 0.373591 0.935591
vt 0.343750 0.843750
vt 0.343750 0.843750
vt 0.373591 0.751909
vt 0.373591 0.751909
vt 0.451716 0.695147
vt 0.451716 0.695147
vt 0.548284 0.695147
vt 0.548284 0.695147
vt 0.626409 0.751908
vt 0.626409 0.751908
vt 0.656250 0.843750
vt 0.656250 0.843750
vt 0.362199 0.009450
vt 0.399628 0.007356
vt 0.399998 0.117922
vt 0.367072 0.125000
vt 0.399626 0.990036
vt 0.375000 0.992875
vt 0.375000 0.757125
vt 0.399875 0.760064
vt 0.403541 1.000000
vt 0.600373 0.990036
vt 0.600802 1.000000
vt 0.625000 0.992876
vt 0.600374 0.759964
vt 0.625000 0.757125
vt 0.600375 0.007356
vt 0.632997 0.009450
vt 0.632928 0.125000
vt 0.600004 0.117922
vt 0.375000 0.505259
vt 0.399627 0.507357
vt 0.399687 0.618010
vt 0.375000 0.620846
vt 0.399626 0.490036
vt 0.375000 0.492875
vt 0.375000 0.257125
vt 0.399874 0.260065
vt 0.600374 0.490036
vt 0.600373 0.507356
vt 0.625000 0.492876
vt 0.600373 0.259964
vt 0.625000 0.257125
vt 0.625000 0.505259
vt 0.625000 0.620846
vt 0.600002 0.617922
vt 0.399628 0.742643
vt 0.375000 0.744741
vt 0.375001 0.629154
vt 0.399997 0.632078
vt 0.600373 0.742644
vt 0.862199 0.009450
vt 0.874999 0.007356
vt 0.875000 0.117922
vt 0.867072 0.125000
vt 0.600004 0.132078
vt 0.399997 0.132077
vt 0.632997 0.240550
vt 0.600374 0.242644
vt 0.399627 0.242644
vt 0.362199 0.240550
vt 0.600002 0.632078
vt 0.862199 0.240550
vt 0.132928 0.125000
vt 0.132997 0.240550
vt 0.132997 0.009450
vn 0.000000 1.000000 0.000000
vn 0.000000 1.000000 0.000000
vn 0.000000 1.000000 0.000000
vn 0.000000 1.000000 0.000000
vn 0.000000 1.000000 0.000001
vn 0.000000 1.000000 0.000001
vn 0.000000 1.000000 -0.000000
vn 0.000000 1.000000 -0.000000
vn 0.000000 1.000000 -0.000001
vn 0.000000 1.000000 -0.000001
vn 0.000000 1.000000 0.000000
vn 0.000000 -1.000000 -0.000000
vn 0.000000 -1.000000 0.000000
vn 0.000000 -1.000000 -0.000001
vn 0.000000 -1.000000 -0.000000
vn 0.000000 -1.000000 -0.000000
vn 0.000000 -1.000000 0.000000
vn 0.000000 -1.000000 0.000001
vn 0.000000 -1.000000 0.000000
vn 0.000000 -1.000000 0.000000
vn 0.000000 -1.000000 0.000000
vn 0.000000 -1.000000 -0.000000
vn 0.430712 -0.122606 -0.894122
vn -0.177084 -0.122599 -0.976530
vn -0.177087 -0.122599 -0.976530
vn 0.430716 -0.122606 -0.894121
vn -0.717257 -0.122613 -0.685936
vn -0.717261 -0.122613 -0.685932
vn -0.983456 -0.122622 -0.133334
vn -0.983455 -0.122622 -0.133342
vn -0.874003 -0.122623 0.470194
vn -0.874005 -0.122623 0.470190
vn -0.430698 -0.122625 0.894127
vn -0.430698 -0.122625 0.894127
vn 0.177085 -0.122627 0.976526
vn 0.177086 -0.122627 0.976526
vn 0.717258 -0.122626 0.685933
vn 0.717257 -0.122626 0.685934
vn 0.983455 -0.122625 0.133337
vn 0.983456 -0.122625 0.133335
vn 0.874004 -0.122619 -0.470193
vn 0.874006 -0.122619 -0.470190
vn 0.414615 0.295565 -0.860660
vn 0.414609 0.295565 -0.860663
vn -0.170464 0.295550 -0.939996
vn -0.170462 0.295550 -0.939996
vn -0.690418 0.295553 -0.660281
vn -0.690423 0.295553 -0.660277
vn -0.946663 0.295563 -0.128341
vn -0.946662 0.295563 -0.128351
vn -0.841305 0.295572 0.452597
vn -0.841307 0.295572 0.452593
vn -0.414593 0.295572 0.860668
vn -0.414603 0.295572 0.860664
vn 0.170451 0.295589 0.939986
vn 0.170446 0.295589 0.939987
vn 0.690413 0.295593 0.660269
vn 0.690424 0.295593 0.660257
vn 0.946658 0.295580 0.128339
vn 0.946657 0.295581 0.128349
vn 0.841303 0.295575 -0.452597
vn 0.841306 0.295575 -0.452592
vn -0.018477 0.999780 0.009940
vn 0.000000 1.000000 -0.000000
vn 0.000000 1.000000 0.000000
vn 0.000000 1.000000 0.000000
vn -0.011854 0.996098 0.087452
vn -0.091064 0.994639 0.048993
vn -0.079507 0.996098 -0.038301
vn 0.000000 1.000000 0.000000
vn 0.000000 1.000000 0.000000
vn 0.000000 1.000000 0.000000
vn 0.000000 1.000000 -0.000000
vn 0.000000 1.000000 -0.000000
vn 0.000000 1.000000 -0.000001
vn 0.000000 1.000000 -0.000001
vn 0.000000 1.000000 -0.000000
vn 0.000000 1.000000 0.000000
vn 0.000000 1.000000 0.000000
vn 0.000000 1.000000 0.000001
vn 0.000000 1.000000 0.000001
vn 0.000000 1.000000 0.000000
vn 0.000000 1.000000 0.000000
vn 0.000000 1.000000 0.000001
vn 0.000000 1.000000 0.000001
vn 0.000000 1.000000 0.000003
vn 0.000000 1.000000 0.000003
vn 0.000000 1.000000 0.000002
vn 0.000000 1.000000 0.000002
vn 0.000000 1.000000 -0.000000
vn 0.000000 1.000000 -0.000000
vn 0.000000 1.000000 -0.000000
vn 0.000000 1.000000 -0.000000
vn -0.134365 0.000000 0.990932
vn -0.134365 0.000000 0.990932
vn -0.134365 0.000000 0.990932
vn -0.134365 0.000000 0.990932
vn 0.473773 0.000000 0.880647
vn 0.473773 0.000000 0.880647
vn 0.473773 0.000000 0.880647
vn 0.473773 0.000000 0.880647
vn 0.900924 0.000000 0.433977
vn 0.900924 0.000000 0.433977
vn 0.900924 0.000000 0.433977
vn 0.900924 0.000000 0.433977
vn 0.983950 0.000000 -0.178447
vn 0.983950 0.000000 -0.178447
vn 0.983949 0.000000 -0.178447
vn 0.983949 0.000000 -0.178447
vn 0.691126 0.000000 -0.722734
vn 0.691126 0.000000 -0.722734
vn 0.691126 0.000000 -0.722734
vn 0.691126 0.000000 -0.722734
vn 0.134366 0.000000 -0.990932
vn 0.134366 0.000000 -0.990932
vn 0.134366 0.000000 -0.990932
vn 0.134366 0.000000 -0.990932
vn -0.473724 0.000000 -0.880673
vn -0.473724 0.000000 -0.880673
vn -0.473724 0.000000 -0.880673
vn -0.473724 0.000000 -0.880673
vn -0.900911 0.000000 -0.434004
vn -0.900911 0.000000 -0.434004
vn -0.900911 0.000000 -0.434004
vn -0.900911 0.000000 -0.434004
vn -0.983953 0.000000 0.178427
vn -0.983953 0.000000 0.178427
vn -0.983953 0.000000 0.178427
vn -0.983953 0.000000 0.178427
vn -0.691127 0.000000 0.722733
vn -0.691127 0.000000 0.722733
vn -0.691127 0.000000 0.722733
vn -0.691127 0.000000 0.722733
vn -0.866973 -0.055278 0.495279
vn 0.315118 -0.484842 0.815861
vn 0.332027 -0.402674 0.853001
vn -0.858230 0.000000 0.513266
vn -0.081652 -0.993299 0.081799
vn -0.891083 -0.055153 0.450477
vn -0.113365 -0.993287 0.023009
vn 0.113304 -0.993293 -0.023036
vn 0.507131 -0.484838 0.712566
vn 0.891081 -0.055075 -0.450491
vn 0.081681 -0.993290 -0.081870
vn 0.866978 -0.055075 -0.495294
vn 0.901255 -0.000000 -0.433289
vn 0.528809 -0.402673 0.747139
vn -0.891001 0.055215 0.450632
vn -0.507061 0.484857 -0.712603
vn -0.528754 0.402781 -0.747119
vn -0.901227 -0.000021 0.433349
vn -0.113254 0.993299 0.023055
vn -0.866968 0.055152 0.495303
vn -0.081676 0.993287 0.081917
vn 0.081665 0.993293 -0.081850
vn -0.315221 0.484803 -0.815844
vn 0.866978 0.055075 -0.495294
vn 0.113330 0.993290 -0.023039
vn 0.891081 0.055075 -0.450491
vn 0.858230 -0.000000 -0.513265
vn -0.332119 0.402718 -0.852945
vn -0.507176 -0.484887 -0.712501
vn -0.528732 -0.402732 -0.747161
vn -0.315098 -0.485021 -0.815762
vn -0.331945 -0.402860 -0.852946
vn 0.528809 0.402673 0.747139
vn 0.332027 0.402675 0.853001
vn 0.507055 0.485021 0.712495
vn 0.315044 0.484890 0.815861
s 1
g flaska
usemtl lambert3SG
f 13/1/1 12/23/2 14/24/3
f 13/1/1 14/24/3 15/25/4
f 13/1/1 15/25/4 16/26/5
f 13/1/1 16/26/5 17/27/6
f 13/1/1 17/27/6 18/28/7
f 13/1/1 18/28/7 19/29/8
f 13/1/1 19/29/8 20/30/9
f 13/1/1 20/30/9 21/31/10
f 13/1/1 21/31/10 22/32/11
f 13/1/1 22/32/11 12/23/2
s 2
f 2/12/12 3/14/13 1/13/14
f 2/12/12 4/15/15 3/14/13
f 2/12/12 5/16/16 4/15/15
f 2/12/12 6/17/17 5/16/16
f 2/12/12 7/18/18 6/17/17
f 2/12/12 8/19/19 7/18/18
f 2/12/12 9/20/20 8/19/19
f 2/12/12 10/21/21 9/20/20
f 2/12/12 11/22/22 10/21/21
f 2/12/12 1/13/14 11/22/22
s 3
f 1/2/23 3/3/24 14/24/25 12/23/26
f 3/3/24 4/4/27 15/25/28 14/24/25
f 4/4/27 5/5/29 16/26/30 15/25/28
f 5/5/29 6/6/31 17/27/32 16/26/30
f 6/6/31 7/7/33 18/28/34 17/27/32
f 7/7/33 8/8/35 19/29/36 18/28/34
f 8/8/35 9/9/37 20/30/38 19/29/36
f 9/9/37 10/10/39 21/31/40 20/30/38
f 10/10/39 11/11/41 22/32/42 21/31/40
f 11/11/41 1/2/23 12/23/26 22/32/42
s 4
usemtl blinn9SG
f 33/33/43 23/34/44 24/35/45 34/36/46
f 34/36/46 24/35/45 25/37/47 35/38/48
f 35/38/48 25/37/47 26/39/49 36/40/50
f 36/40/50 26/39/49 27/41/51 37/42/52
f 37/42/52 27/41/51 28/43/53 38/44/54
f 38/44/54 28/43/53 29/45/55 39/46/56
f 39/46/56 29/45/55 30/47/57 40/48/58
f 40/48/58 30/47/57 31/49/59 41/50/60
f 41/50/60 31/49/59 32/51/61 42/52/62
f 42/52/62 32/51/61 23/34/44 33/33/43
s 5
f 54/53/63 53/54/64 55/55/65
f 54/53/63 55/55/65 56/56/66
f 54/53/63 56/56/66 57/57/67
f 54/53/63 57/57/67 58/58/68
f 54/53/63 58/58/68 59/59/69
f 54/53/63 59/59/69 60/60/70
f 54/53/63 60/60/70 61/61/71
f 54/53/63 61/61/71 62/62/72
f 54/53/63 62/62/72 63/63/73
f 54/53/63 63/63/73 53/54/64
s 6
f 33/64/74 34/65/75 44/66/76 43/67/77
f 34/65/75 35/68/78 45/69/79 44/66/76
f 35/68/78 36/70/80 46/71/81 45/69/79
f 36/70/80 37/72/82 47/73/83 46/71/81
f 37/72/82 38/74/84 48/75/85 47/73/83
f 38/74/84 39/76/86 49/77/87 48/75/85
f 39/76/86 40/78/88 50/79/89 49/77/87
f 40/78/88 41/80/90 51/81/91 50/79/89
f 41/80/90 42/82/92 52/83/93 51/81/91
f 42/82/92 33/64/74 43/67/77 52/83/93
s off
f 43/67/94 44/66/95 55/55/96 53/54/97
f 44/66/98 45/69/99 56/56/100 55/55/101
f 45/69/102 46/71/103 57/57/104 56/56/105
f 46/71/106 47/73/107 58/58/108 57/57/109
f 47/73/110 48/75/111 59/59/112 58/58/113
f 48/75/114 49/77/115 60/60/116 59/59/117
f 49/77/118 50/79/119 61/61/120 60/60/121
f 50/79/122 51/81/123 62/62/124 61/61/125
f 51/81/126 52/83/127 63/63/128 62/62/129
f 52/83/130 43/67/131 53/54/132 63/63/133
s 7
f 64/84/134 66/85/135 93/86/136 92/87/137
f 65/88/138 64/89/134 78/90/139 77/91/140
f 66/92/135 65/88/138 69/93/141 68/94/142
f 67/95/143 69/93/141 80/96/144 79/97/145
f 68/98/142 67/99/143 83/100/146 82/101/147
f 70/102/148 72/103/149 94/104/150 96/105/151
f 71/106/152 70/107/148 87/108/153 86/109/154
f 72/103/149 71/106/152 75/110/155 74/111/156
f 73/112/157 75/110/155 98/113/158 97/114/159
f 74/111/156 73/115/157 89/116/160 88/117/161
f 76/118/162 78/119/139 96/120/151 95/121/163
f 77/91/140 76/118/162 81/122/164 80/96/144
f 79/123/145 81/124/164 90/125/165 89/126/160
f 82/101/147 84/127/166 91/128/167 93/86/136
f 84/127/166 83/100/146 97/129/159 99/130/168
f 85/131/169 87/132/153 92/87/137 91/128/167
f 86/109/154 85/131/169 99/130/168 98/113/158
f 88/117/161 90/133/165 95/121/163 94/104/150
f 99/130/168 85/131/169 91/128/167 84/127/166
f 75/110/155 71/106/152 86/109/154 98/113/158
f 72/103/149 74/111/156 88/117/161 94/104/150
f 77/91/140 80/96/144 69/93/141 65/88/138
f 83/100/146 89/126/160 73/134/157 97/129/159
f 96/135/151 92/87/137 87/132/153 70/136/148
f 79/123/145 89/126/160 83/100/146 67/99/143
f 95/121/163 90/133/165 81/122/164 76/118/162
f 64/84/134 92/87/137 96/135/151 78/137/139
f 82/101/147 93/86/136 66/85/135 68/98/142
f 64/89/134 65/88/138 66/92/135
f 67/95/143 68/94/142 69/93/141
f 70/107/148 71/106/152 72/103/149
f 73/112/157 74/111/156 75/110/155
f 76/118/162 77/91/140 78/90/139
f 79/97/145 80/96/144 81/122/164
f 82/101/147 83/100/146 84/127/166
f 85/131/169 86/109/154 87/132/153
f 88/117/161 89/116/160 90/133/165
f 91/128/167 92/87/137 93/86/136
f 94/104/150 95/121/163 96/105/151
f 97/129/159 98/113/158 99/130/168
